<?xml version="1.0" encoding="UTF-8"?>
<svg id="Capa_2" data-name="Capa 2" xmlns="http://www.w3.org/2000/svg" viewBox="0 0 803.9 306.33">
  <defs>
    <style>
      .cls-1 {
        fill: #ef9733;
      }

      .cls-2 {
        fill: #f09d38;
      }

      .cls-3 {
        fill: #4e684b;
      }

      .cls-4 {
        fill: #273927;
      }
    </style>
  </defs>
  <g id="Capa_1-2" data-name="Capa 1">
    <path d="M660.74,268.58l-84.35.03c-2.81,0-4.95-1.9-4.95-4.52l.04-15.82,52.21-64.02-46.28-.12c-2.35,0-4.05-1.63-4.22-3.92v-15.12c0-2.29,1.79-4.73,4.4-4.73l77.69-.08c1.97,0,4.97.95,4.97,2.96v18.79s-51.95,62.97-51.95,62.97l52.03.17c3.02,0,5.11,1.96,5.11,4.96l.06,14.09c0,2.2-1.56,4.36-4.74,4.36Z"/>
    <path d="M319.06,202.6l-.33,61.57c-.01,2.78-1.55,4.4-4.34,4.39l-21.11-.05c-2.41,0-4.85-1.83-4.85-4.56v-63.8c0-20.15,14.28-36.06,33.75-40.27,13.72-2.96,27.58-2.34,41.16,1.23,1.29.34,1.7,2.9,1.34,4.03l-5.86,18.45c-2.35,7.41-14.34-3.6-29.94,2.13-6.79,2.5-9.79,9.28-9.83,16.88Z"/>
    <path d="M546.9,268.51l-22.59-.03c-2.75,0-4.96-1.42-4.96-4.41v-100.73c.66-1.91,2.3-2.9,4.2-2.91l22.66-.05c2.71,0,4.67,1.72,4.67,4.65v99.13c0,2.3-1.32,4.33-3.98,4.33Z"/>
    <path d="M802.82,267.5c-7.05,2.69-20.83,2.72-24.59-1.21-3.27-3.42-3.96-7.92-5.58-12.71-9.23,9.84-20.54,15.79-33.25,15.87l-13.94.08c-30.95-1.48-52.74-26.76-51.46-57.51.96-23.18,15.15-43.25,37.96-50.43,16.59-5.22,35.15-4.82,51.45,1.42,20.87,8,34.05,26.86,34.45,48.74l.55,30.37c.08,4.38,8.39,9.03,4.41,25.37ZM767.74,214.3c0-17.7-14.35-32.05-32.05-32.05s-32.05,14.35-32.05,32.05,14.35,32.05,32.05,32.05,32.05-14.35,32.05-32.05Z"/>
    <path class="cls-2" d="M547.88,142.2h-25.52c-2.47,0-4.56-2.41-3.77-4.85l8.71-27.2c1.18-3.68,4.12-6.01,8.07-6l30.94.13c2.92.01,4.07,4.18,2.72,6.56l-16.28,28.65c-.8,1.41-2.68,2.7-4.86,2.7Z"/>
    <path d="M499.58,266.29c-1.34,4.13-19.49,3.75-23.37,1.03-4.21-2.96-5.25-8.37-6.87-13.41-15.27,16.55-40.03,19.23-60.4,12.81-22.03-6.95-35.54-25.78-36.89-48.54-1.43-24.21,11.08-46.29,34.14-55.3,16.75-6.54,35.72-6.42,52.67-.28,19.09,6.92,31.94,22.99,35.04,43.03l.8,31.02c.15,5.73,2.09,8.77,4.63,13.68,2.04,3.95,1.58,11.83.24,15.96ZM464.83,214.27c0-17.55-14.23-31.78-31.78-31.78s-31.78,14.23-31.78,31.78,14.23,31.78,31.78,31.78,31.78-14.23,31.78-31.78Z"/>
    <g>
      <path class="cls-1" d="M91.21,214.86c.77,2.74-2.78,4.29-4.39,4.37-1.99.1-3.97-1.14-5.41-3.31-15.73-23.84-32.16-46.46-49.46-69.23-7.06-9.29-13.49-17.81-19.35-27.79C1.22,99.51-3.17,77.15,2.42,55.23,8.58,31.07,25.8,12.02,49.55,4.32c20.73-6.72,43.05-5.83,62.39,4.21,30.06,15.6,45.01,48.44,39.63,81.74-31.67,14.06-60.56,43.08-64.89,78.13-1.69,15.66.14,30.79,4.53,46.45ZM110.45,69.39c0-19.14-15.52-34.66-34.66-34.66s-34.66,15.52-34.66,34.66,15.52,34.66,34.66,34.66,34.66-15.52,34.66-34.66Z"/>
      <path class="cls-4" d="M105.21,244.21c11.87-26.62,41.63-66.77,61.35-89.79,6.45-7.53,13.23-13.93,18.6-22.78-26.49,20.56-49.75,43.91-69.87,70.29-3.15,4.14-4.84,8.48-8.76,11.74-13.46-32.7-6.49-65.04,19.56-87.8,24.93-21.95,62.62-33.07,96.88-34.96,5.1,59.88-11.47,152.1-84.74,148.25-3.86-.2-8.81-2.26-12.45-.43-4.6,2.31-7.11,14.13-14.86,12.49-2.39-.5-7.36-3.3-5.7-7Z"/>
      <path class="cls-3" d="M215.98,242.01c10.14.68,17.7,7.73,20.19,16.04,2.79,9.32-.57,18.7-7.98,24.93-7.44,6.25-17.25,6.99-25.89,1.59-29.39,22.06-75.73,27.05-109.76,16.32-39.79-12.54-68.08-45.69-77.63-86.63C5.66,210.58-.12,202.39.1,192.64c.21-9.75,6.6-18.39,16.47-21.34,8.12-2.43,16.35-.44,22.39,4.86,6.11,5.36,9.25,14.19,6.91,22.48-2.02,7.16-7.35,11.81-14.04,15.41,9.88,28.55,29.55,52.14,56.59,64.96,30.7,14.56,74.47,12.42,102.2-7.76-.81-7.88.17-15.34,5.04-21.07,4.65-5.47,11.52-8.77,20.32-8.18ZM33.42,193.03c0-5.43-4.4-9.83-9.83-9.83s-9.83,4.4-9.83,9.83,4.4,9.83,9.83,9.83,9.83-4.4,9.83-9.83ZM223.93,264.82c0-5.5-4.46-9.97-9.97-9.97s-9.97,4.46-9.97,9.97,4.46,9.97,9.97,9.97,9.97-4.46,9.97-9.97Z"/>
    </g>
  </g>
</svg>