<?xml version="1.0" encoding="UTF-8"?>
<svg id="Capa_2" data-name="Capa 2" xmlns="http://www.w3.org/2000/svg" viewBox="0 0 237.15 306.33">
  <defs>
    <style>
      .cls-1 {
        fill: #ef9733;
      }

      .cls-2 {
        fill: #4e684b;
      }

      .cls-3 {
        fill: #273927;
      }
    </style>
  </defs>
  <g id="Capa_1-2" data-name="Capa 1">
    <g>
      <path class="cls-1" d="M91.21,214.86c.77,2.74-2.78,4.29-4.39,4.37-1.99.1-3.97-1.14-5.41-3.31-15.73-23.84-32.16-46.46-49.46-69.23-7.06-9.29-13.49-17.81-19.35-27.79C1.22,99.51-3.17,77.15,2.42,55.23,8.58,31.07,25.8,12.02,49.55,4.32c20.73-6.72,43.05-5.83,62.39,4.21,30.06,15.6,45.01,48.44,39.63,81.74-31.67,14.06-60.56,43.08-64.89,78.13-1.69,15.66.14,30.79,4.53,46.45ZM110.45,69.39c0-19.14-15.52-34.66-34.66-34.66s-34.66,15.52-34.66,34.66,15.52,34.66,34.66,34.66,34.66-15.52,34.66-34.66Z"/>
      <path class="cls-3" d="M105.21,244.21c11.87-26.62,41.63-66.77,61.35-89.79,6.45-7.53,13.23-13.93,18.6-22.78-26.49,20.56-49.75,43.91-69.87,70.29-3.15,4.14-4.84,8.48-8.76,11.74-13.46-32.7-6.49-65.04,19.56-87.8,24.93-21.95,62.62-33.07,96.88-34.96,5.1,59.88-11.47,152.1-84.74,148.25-3.86-.2-8.81-2.26-12.45-.43-4.6,2.31-7.11,14.13-14.86,12.49-2.39-.5-7.36-3.3-5.7-7Z"/>
      <path class="cls-2" d="M215.98,242.01c10.14.68,17.7,7.73,20.19,16.04,2.79,9.32-.57,18.7-7.98,24.93-7.44,6.25-17.25,6.99-25.89,1.59-29.39,22.06-75.73,27.05-109.76,16.32-39.79-12.54-68.08-45.69-77.63-86.63C5.66,210.58-.12,202.39.1,192.64c.21-9.75,6.6-18.39,16.47-21.34,8.12-2.43,16.35-.44,22.39,4.86,6.11,5.36,9.25,14.19,6.91,22.48-2.02,7.16-7.35,11.81-14.04,15.41,9.88,28.55,29.55,52.14,56.59,64.96,30.7,14.56,74.47,12.42,102.2-7.76-.81-7.88.17-15.34,5.04-21.07,4.65-5.47,11.52-8.77,20.32-8.18ZM33.42,193.03c0-5.43-4.4-9.83-9.83-9.83s-9.83,4.4-9.83,9.83,4.4,9.83,9.83,9.83,9.83-4.4,9.83-9.83ZM223.93,264.82c0-5.5-4.46-9.97-9.97-9.97s-9.97,4.46-9.97,9.97,4.46,9.97,9.97,9.97,9.97-4.46,9.97-9.97Z"/>
    </g>
  </g>
</svg>